<svg xmlns="http://www.w3.org/2000/svg" xmlns:xlink="http://www.w3.org/1999/xlink" width="1920" zoomAndPan="magnify" viewBox="0 0 1440 809.999993" height="1080" preserveAspectRatio="xMidYMid meet" version="1.0"><defs><g/><clipPath id="9642abd76a"><path d="M 619.097656 307.742188 L 821 307.742188 L 821 502.230469 L 619.097656 502.230469 Z M 619.097656 307.742188 " clip-rule="nonzero"/></clipPath><clipPath id="4721cb4f13"><path d="M 719.875 307.742188 C 664.214844 307.742188 619.097656 351.28125 619.097656 404.988281 C 619.097656 458.695312 664.214844 502.230469 719.875 502.230469 C 775.53125 502.230469 820.648438 458.695312 820.648438 404.988281 C 820.648438 351.28125 775.53125 307.742188 719.875 307.742188 Z M 719.875 307.742188 " clip-rule="nonzero"/></clipPath><clipPath id="1d01e3349c"><path d="M 634.007812 376.023438 L 762.257812 376.023438 L 762.257812 382.773438 L 634.007812 382.773438 Z M 634.007812 376.023438 " clip-rule="nonzero"/></clipPath><clipPath id="14d0c809b8"><path d="M 677.953125 423.339844 L 806.203125 423.339844 L 806.203125 430 L 677.953125 430 Z M 677.953125 423.339844 " clip-rule="nonzero"/></clipPath></defs><g clip-path="url(#9642abd76a)"><g clip-path="url(#4721cb4f13)"><path fill="#37964c" d="M 619.097656 307.742188 L 820.421875 307.742188 L 820.421875 502.230469 L 619.097656 502.230469 Z M 619.097656 307.742188 " fill-opacity="1" fill-rule="nonzero"/></g></g><g clip-path="url(#1d01e3349c)"><path fill="#000000" d="M 648.574219 376.101562 C 645.789062 376.101562 642.238281 377.386719 639.28125 378.636719 C 636.328125 379.890625 634.007812 381.140625 634.007812 381.140625 L 634.8125 382.570312 C 634.8125 382.570312 637.070312 381.351562 639.941406 380.132812 C 642.816406 378.917969 646.347656 377.730469 648.574219 377.730469 C 650.800781 377.730469 652.964844 378.867188 655.253906 380.101562 C 657.542969 381.335938 659.953125 382.667969 662.738281 382.667969 C 665.519531 382.667969 667.933594 381.335938 670.21875 380.101562 C 672.507812 378.867188 674.675781 377.730469 676.902344 377.730469 C 679.128906 377.730469 681.292969 378.867188 683.578125 380.101562 C 685.867188 381.335938 688.28125 382.667969 691.0625 382.667969 C 693.847656 382.667969 696.257812 381.335938 698.546875 380.101562 C 700.835938 378.867188 703 377.730469 705.226562 377.730469 C 707.453125 377.730469 709.621094 378.867188 711.90625 380.101562 C 714.195312 381.335938 716.605469 382.667969 719.390625 382.667969 C 722.175781 382.667969 724.585938 381.335938 726.875 380.101562 C 729.164062 378.867188 731.328125 377.730469 733.554688 377.730469 C 735.78125 377.730469 737.945312 378.867188 740.234375 380.101562 C 742.523438 381.335938 744.933594 382.667969 747.71875 382.667969 C 750.503906 382.667969 754.054688 381.386719 757.007812 380.132812 C 759.964844 378.882812 762.28125 377.632812 762.28125 377.632812 L 761.480469 376.203125 C 761.480469 376.203125 759.222656 377.421875 756.347656 378.636719 C 753.472656 379.855469 749.945312 381.039062 747.71875 381.039062 C 745.492188 381.039062 743.324219 379.90625 741.039062 378.671875 C 738.75 377.4375 736.339844 376.101562 733.554688 376.101562 C 730.769531 376.101562 728.359375 377.4375 726.070312 378.671875 C 723.78125 379.90625 721.617188 381.039062 719.390625 381.039062 C 717.164062 381.039062 714.996094 379.90625 712.710938 378.671875 C 710.421875 377.4375 708.011719 376.101562 705.226562 376.101562 C 702.441406 376.101562 700.03125 377.4375 697.746094 378.671875 C 695.457031 379.90625 693.289062 381.039062 691.0625 381.039062 C 688.835938 381.039062 686.671875 379.90625 684.382812 378.671875 C 682.09375 377.4375 679.683594 376.101562 676.902344 376.101562 C 674.117188 376.101562 671.703125 377.4375 669.417969 378.671875 C 667.128906 379.90625 664.964844 381.039062 662.738281 381.039062 C 660.507812 381.039062 658.34375 379.90625 656.054688 378.671875 C 653.769531 377.4375 651.359375 376.101562 648.574219 376.101562 Z M 648.574219 376.101562 " fill-opacity="1" fill-rule="nonzero"/></g><g clip-path="url(#14d0c809b8)"><path fill="#000000" d="M 692.515625 423.417969 C 689.730469 423.417969 686.179688 424.703125 683.226562 425.953125 C 680.269531 427.203125 677.953125 428.457031 677.953125 428.457031 L 678.753906 429.882812 C 678.753906 429.882812 681.011719 428.667969 683.886719 427.449219 C 686.761719 426.230469 690.289062 425.046875 692.515625 425.046875 C 694.742188 425.046875 696.910156 426.179688 699.195312 427.414062 C 701.484375 428.648438 703.894531 429.984375 706.679688 429.984375 C 709.464844 429.984375 711.875 428.648438 714.164062 427.414062 C 716.453125 426.179688 718.617188 425.046875 720.84375 425.046875 C 723.070312 425.046875 725.234375 426.179688 727.523438 427.414062 C 729.8125 428.648438 732.222656 429.984375 735.007812 429.984375 C 737.792969 429.984375 740.203125 428.648438 742.488281 427.414062 C 744.777344 426.179688 746.945312 425.046875 749.171875 425.046875 C 751.398438 425.046875 753.5625 426.179688 755.851562 427.414062 C 758.140625 428.648438 760.550781 429.984375 763.332031 429.984375 C 766.117188 429.984375 768.53125 428.648438 770.816406 427.414062 C 773.105469 426.179688 775.269531 425.046875 777.496094 425.046875 C 779.726562 425.046875 781.890625 426.179688 784.175781 427.414062 C 786.464844 428.648438 788.875 429.984375 791.660156 429.984375 C 794.445312 429.984375 797.996094 428.699219 800.953125 427.449219 C 803.90625 426.199219 806.226562 424.945312 806.226562 424.945312 L 805.421875 423.519531 C 805.421875 423.519531 803.164062 424.734375 800.292969 425.953125 C 797.417969 427.171875 793.886719 428.355469 791.660156 428.355469 C 789.433594 428.355469 787.269531 427.222656 784.980469 425.988281 C 782.691406 424.753906 780.28125 423.417969 777.496094 423.417969 C 774.714844 423.417969 772.300781 424.753906 770.015625 425.988281 C 767.726562 427.222656 765.558594 428.355469 763.332031 428.355469 C 761.105469 428.355469 758.941406 427.222656 756.652344 425.988281 C 754.363281 424.753906 751.953125 423.417969 749.171875 423.417969 C 746.386719 423.417969 743.976562 424.753906 741.6875 425.988281 C 739.398438 427.222656 737.234375 428.355469 735.007812 428.355469 C 732.78125 428.355469 730.613281 427.222656 728.328125 425.988281 C 726.039062 424.753906 723.628906 423.417969 720.84375 423.417969 C 718.058594 423.417969 715.648438 424.753906 713.359375 425.988281 C 711.070312 427.222656 708.90625 428.355469 706.679688 428.355469 C 704.453125 428.355469 702.285156 427.222656 700 425.988281 C 697.710938 424.753906 695.300781 423.417969 692.515625 423.417969 Z M 692.515625 423.417969 " fill-opacity="1" fill-rule="nonzero"/></g><path stroke-linecap="butt" transform="matrix(0.396699, 0, 0, 0.396699, 634.00819, 383.56796)" fill="none" stroke-linejoin="miter" d="M 13.026471 79.883825 C 11.63806 79.883825 10.279191 79.716428 8.949862 79.381635 C 7.610686 79.036994 6.429061 78.505262 5.395138 77.776593 C 4.371063 77.038077 3.534078 76.11247 2.903877 74.980079 C 2.273677 73.847688 1.958577 72.498665 1.958577 70.933011 C 1.958577 68.875013 2.165361 66.807168 2.569083 64.74917 C 2.972806 62.681325 3.406068 60.593786 3.888565 58.496401 C 4.371063 56.399015 4.804325 54.272089 5.208047 52.115622 C 5.611769 49.959155 5.818554 47.763301 5.818554 45.528059 C 5.818554 43.391286 5.611769 41.362829 5.188354 39.442687 C 4.774785 37.532392 4.124891 35.592557 3.248518 33.633028 C 3.100815 33.27854 2.962959 32.924052 2.854643 32.559718 C 2.73648 32.195383 2.677399 31.811355 2.677399 31.407633 C 2.677399 30.324476 3.041734 29.418563 3.760556 28.709587 C 4.469531 27.990765 5.345904 27.419646 6.360132 27.006077 C 7.384208 26.592508 8.447671 26.297102 9.570215 26.139551 C 10.69276 25.972154 11.667601 25.893379 12.494739 25.893379 C 13.449886 25.893379 14.503503 25.982001 15.635894 26.159245 C 16.768285 26.336489 17.831748 26.651589 18.826283 27.104546 C 19.820818 27.557502 20.647956 28.168009 21.317544 28.945912 C 21.977285 29.733663 22.312079 30.728198 22.312079 31.929517 C 22.312079 32.36278 22.262845 32.855124 22.164376 33.406549 C 22.065907 33.957975 21.937897 34.529094 21.790194 35.100213 C 21.632644 35.681179 21.494788 36.252298 21.356931 36.803723 C 21.209228 37.355148 21.110759 37.857339 21.031984 38.310296 C 20.835047 39.501768 20.69719 40.673547 20.638109 41.845326 C 20.569181 43.017105 20.53964 44.188883 20.53964 45.370509 C 20.53964 49.525893 20.894128 53.622195 21.593257 57.669263 C 22.302232 61.706484 23.296767 65.684624 24.576861 69.613529 C 24.704871 69.997557 24.80334 70.371739 24.882115 70.74592 C 24.96089 71.129949 25.000277 71.513977 25.000277 71.917699 C 25.000277 73.355344 24.596555 74.576357 23.789111 75.580739 C 22.981667 76.58512 21.977285 77.412258 20.766119 78.052306 C 19.554952 78.7022 18.255164 79.165003 16.856907 79.450563 C 15.45865 79.745969 14.188402 79.883825 13.026471 79.883825 Z M 45.38332 80.228466 C 44.329704 80.228466 43.167772 80.179232 41.907371 80.070916 C 40.656817 79.972447 39.38657 79.795204 38.096628 79.549032 C 36.816534 79.293013 35.575827 78.938525 34.374508 78.465875 C 33.183035 78.003071 32.119572 77.412258 31.184118 76.693436 C 30.258512 75.974614 29.510149 75.108088 28.93903 74.074166 C 28.377757 73.040243 28.092198 71.829077 28.092198 70.450514 C 28.092198 68.353128 28.289135 66.245896 28.673164 64.11897 C 29.067039 61.992044 29.500302 59.85527 29.982799 57.698804 C 30.455449 55.552184 30.888712 53.376023 31.282587 51.190016 C 31.676462 49.004008 31.863553 46.768766 31.863553 44.503984 C 31.863553 42.170273 31.617381 40.023653 31.11519 38.064124 C 30.612999 36.114441 29.795708 34.125372 28.65347 32.087067 C 28.486073 31.811355 28.33837 31.515948 28.220207 31.200848 C 28.111892 30.885748 28.05281 30.550954 28.05281 30.196466 C 28.05281 29.290553 28.426992 28.561884 29.165508 28.010459 C 29.913871 27.449187 30.80009 27.025771 31.834012 26.720517 C 32.858088 26.425111 33.911704 26.218326 34.985014 26.119858 C 36.048477 26.021389 36.915003 25.962308 37.564897 25.962308 C 38.047394 25.962308 38.62836 25.991848 39.307795 26.041083 C 39.987229 26.090317 40.696205 26.178939 41.444568 26.306948 C 42.183084 26.434958 42.9216 26.602355 43.650269 26.818986 C 44.378938 27.035618 45.028832 27.31133 45.609798 27.665818 C 46.190764 28.020306 46.653568 28.433875 47.008055 28.916372 C 47.362543 29.389022 47.539787 29.969988 47.539787 30.649423 C 47.539787 31.299317 47.461012 31.978752 47.313309 32.687727 C 47.155759 33.396702 47.017902 34.076137 46.89974 34.726031 C 46.387702 37.374842 45.934745 40.023653 45.54087 42.672464 C 45.137148 45.331122 44.930364 47.989779 44.930364 50.658284 C 44.930364 51.495269 44.94021 52.450416 44.950057 53.533573 C 44.959904 54.61673 45.038679 55.719581 45.176536 56.832278 C 45.314392 57.954822 45.521176 59.057673 45.796889 60.14083 C 46.082449 61.223987 46.476324 62.188981 47.008055 63.025966 C 47.539787 63.872798 48.209375 64.552232 49.006972 65.06427 C 49.814416 65.586155 50.818798 65.842174 52.029964 65.842174 C 52.837409 65.842174 53.753169 65.645236 54.767397 65.251361 C 55.791473 64.867333 56.805701 64.43407 57.829777 63.971266 C 58.844006 63.508463 59.828694 63.0752 60.773994 62.691172 C 61.719295 62.297297 62.526739 62.100359 63.206174 62.100359 C 64.043159 62.100359 64.742287 62.395766 65.323253 62.986578 C 65.904219 63.577391 66.376869 64.30606 66.741204 65.162739 C 67.105539 66.019418 67.371404 66.89579 67.528954 67.801703 C 67.696351 68.707616 67.775126 69.495366 67.775126 70.145261 C 67.775126 71.129949 67.627423 72.124484 67.32217 73.128865 C 67.016917 74.133247 66.455644 74.940691 65.628506 75.541351 C 64.870297 76.102623 63.974231 76.604814 62.940308 77.057771 C 61.906386 77.510727 60.793688 77.904602 59.602216 78.239396 C 58.410743 78.584037 57.170036 78.879444 55.899788 79.135463 C 54.629541 79.381635 53.36914 79.588419 52.128433 79.755816 C 50.877879 79.913366 49.67656 80.041376 48.514628 80.110304 C 47.362543 80.189079 46.318774 80.228466 45.38332 80.228466 Z M 87.636284 80.228466 C 86.582668 80.228466 85.420736 80.179232 84.160336 80.070916 C 82.899935 79.972447 81.629687 79.795204 80.349593 79.549032 C 79.069498 79.293013 77.828791 78.938525 76.627472 78.465875 C 75.435999 78.003071 74.372536 77.412258 73.437083 76.693436 C 72.511476 75.974614 71.763113 75.108088 71.191994 74.074166 C 70.630722 73.040243 70.345162 71.829077 70.345162 70.450514 C 70.345162 68.353128 70.5421 66.245896 70.926128 64.11897 C 71.320003 61.992044 71.753266 59.85527 72.235763 57.698804 C 72.708414 55.552184 73.141676 53.376023 73.535552 51.190016 C 73.91958 49.004008 74.116517 46.768766 74.116517 44.503984 C 74.116517 42.170273 73.870345 40.023653 73.368155 38.064124 C 72.856117 36.114441 72.038826 34.125372 70.906434 32.087067 C 70.729191 31.811355 70.591334 31.515948 70.473172 31.200848 C 70.364856 30.885748 70.305775 30.550954 70.305775 30.196466 C 70.305775 29.290553 70.679956 28.561884 71.418472 28.010459 C 72.156988 27.449187 73.053054 27.025771 74.07713 26.720517 C 75.111052 26.425111 76.164669 26.218326 77.237979 26.119858 C 78.301442 26.021389 79.167967 25.962308 79.817861 25.962308 C 80.300358 25.962308 80.881324 25.991848 81.560759 26.041083 C 82.240194 26.090317 82.949169 26.178939 83.687685 26.306948 C 84.436048 26.434958 85.164717 26.602355 85.903234 26.818986 C 86.631903 27.035618 87.281797 27.31133 87.862763 27.665818 C 88.443729 28.020306 88.906532 28.433875 89.26102 28.916372 C 89.615507 29.389022 89.792751 29.969988 89.792751 30.649423 C 89.792751 31.299317 89.713976 31.978752 89.566273 32.687727 C 89.408723 33.396702 89.270867 34.076137 89.142857 34.726031 C 88.640666 37.374842 88.18771 40.023653 87.783988 42.672464 C 87.380266 45.331122 87.183328 47.989779 87.183328 50.658284 C 87.183328 51.495269 87.193175 52.450416 87.203022 53.533573 C 87.212869 54.61673 87.291644 55.719581 87.4295 56.832278 C 87.567356 57.954822 87.774141 59.057673 88.049853 60.14083 C 88.325566 61.223987 88.729288 62.188981 89.26102 63.025966 C 89.792751 63.872798 90.452492 64.552232 91.259937 65.06427 C 92.067381 65.586155 93.071763 65.842174 94.282929 65.842174 C 95.090373 65.842174 95.996286 65.645236 97.020362 65.251361 C 98.03459 64.867333 99.058666 64.43407 100.082741 63.971266 C 101.09697 63.508463 102.081658 63.0752 103.026959 62.691172 C 103.962412 62.297297 104.779704 62.100359 105.459138 62.100359 C 106.286276 62.100359 106.995252 62.395766 107.576218 62.986578 C 108.147337 63.577391 108.619987 64.30606 108.984322 65.162739 C 109.358503 66.019418 109.614522 66.89579 109.781919 67.801703 C 109.949316 68.707616 110.028091 69.495366 110.028091 70.145261 C 110.028091 71.129949 109.880388 72.124484 109.575134 73.128865 C 109.269881 74.133247 108.708609 74.940691 107.871624 75.541351 C 107.123261 76.102623 106.227195 76.604814 105.193273 77.057771 C 104.15935 77.510727 103.046653 77.904602 101.85518 78.239396 C 100.653861 78.584037 99.423001 78.879444 98.152753 79.135463 C 96.882505 79.381635 95.622105 79.588419 94.371551 79.755816 C 93.130844 79.913366 91.929524 80.041376 90.767592 80.110304 C 89.615507 80.189079 88.571738 80.228466 87.636284 80.228466 Z M 123.547858 79.883825 C 122.159448 79.883825 120.800578 79.716428 119.461402 79.381635 C 118.132074 79.036994 116.950448 78.505262 115.916525 77.776593 C 114.882603 77.038077 114.055465 76.11247 113.425265 74.980079 C 112.795064 73.847688 112.479964 72.498665 112.479964 70.933011 C 112.479964 68.875013 112.686749 66.807168 113.080624 64.74917 C 113.484346 62.681325 113.927456 60.593786 114.409953 58.496401 C 114.882603 56.399015 115.325713 54.272089 115.729435 52.115622 C 116.133157 49.959155 116.330094 47.763301 116.330094 45.528059 C 116.330094 43.391286 116.12331 41.362829 115.709741 39.442687 C 115.296172 37.532392 114.646278 35.592557 113.760059 33.633028 C 113.612355 33.27854 113.484346 32.924052 113.366183 32.559718 C 113.257868 32.195383 113.198786 31.811355 113.198786 31.407633 C 113.198786 30.324476 113.553274 29.418563 114.272096 28.709587 C 114.990919 27.990765 115.857444 27.419646 116.88152 27.006077 C 117.895748 26.592508 118.969058 26.297102 120.091603 26.139551 C 121.214147 25.972154 122.188988 25.893379 123.016126 25.893379 C 123.971274 25.893379 125.015043 25.982001 126.147434 26.159245 C 127.279826 26.336489 128.343289 26.651589 129.337824 27.104546 C 130.332359 27.557502 131.169343 28.168009 131.829084 28.945912 C 132.498672 29.733663 132.833466 30.728198 132.833466 31.929517 C 132.833466 32.36278 132.784232 32.855124 132.685763 33.406549 C 132.577447 33.957975 132.459285 34.529094 132.301735 35.100213 C 132.154031 35.681179 132.006328 36.252298 131.868472 36.803723 C 131.730616 37.355148 131.6223 37.857339 131.553372 38.310296 C 131.346587 39.501768 131.218578 40.673547 131.14965 41.845326 C 131.090568 43.017105 131.061028 44.188883 131.061028 45.370509 C 131.061028 49.525893 131.405669 53.622195 132.114644 57.669263 C 132.823619 61.706484 133.818154 65.684624 135.098249 69.613529 C 135.226258 69.997557 135.324727 70.371739 135.403502 70.74592 C 135.47243 71.129949 135.511818 71.513977 135.511818 71.917699 C 135.511818 73.355344 135.108096 74.576357 134.300651 75.580739 C 133.503054 76.58512 132.488825 77.412258 131.287506 78.052306 C 130.07634 78.7022 128.776551 79.165003 127.378294 79.450563 C 125.980037 79.745969 124.699943 79.883825 123.547858 79.883825 Z M 163.752671 80.001988 C 159.833613 80.001988 156.219808 79.3324 152.921103 78.003071 C 149.622398 76.663896 146.786496 74.812682 144.403551 72.429737 C 142.030453 70.046792 140.179239 67.21089 138.84991 63.912185 C 137.530428 60.61348 136.870687 56.989828 136.870687 53.041229 C 136.870687 49.013855 137.559969 45.331122 138.928685 41.993029 C 140.297402 38.664783 142.19785 35.799341 144.630029 33.426243 C 147.062209 31.043298 149.957191 29.192084 153.314978 27.872602 C 156.672764 26.55312 160.355497 25.893379 164.363178 25.893379 C 166.62796 25.893379 168.813968 26.247867 170.931047 26.946996 C 173.048126 27.655971 174.928881 28.6702 176.57331 30.009375 C 178.227586 31.338704 179.537221 32.973287 180.521909 34.893428 C 181.506597 36.823417 181.998941 39.009424 181.998941 41.451451 C 181.998941 42.987564 181.752769 44.435055 181.260425 45.813619 C 180.768081 47.182335 180.078799 48.423042 179.182733 49.545586 C 178.286667 50.668131 177.233051 51.642972 176.012037 52.47011 C 174.791024 53.307095 173.461695 53.947142 172.024051 54.400099 C 171.718798 54.498567 171.374157 54.547802 170.970435 54.547802 C 170.13345 54.547802 169.345699 54.341017 168.587489 53.927448 C 167.839127 53.513879 167.169539 52.972301 166.608267 52.302713 C 166.037147 51.633125 165.584191 50.894609 165.249397 50.077318 C 164.904756 49.260027 164.737359 48.46243 164.737359 47.674679 C 164.737359 46.768766 164.904756 46.03025 165.249397 45.449284 C 165.584191 44.868318 165.948526 44.336587 166.342401 43.844243 C 166.736276 43.351899 167.100611 42.859555 167.435404 42.377057 C 167.780045 41.884713 167.947442 41.284054 167.947442 40.575078 C 167.947442 40.003959 167.819433 39.462381 167.553567 38.979884 C 167.287701 38.48754 166.94306 38.064124 166.529491 37.72933 C 166.115922 37.384689 165.643272 37.12867 165.111541 36.931732 C 164.589656 36.744642 164.048078 36.65602 163.496652 36.65602 C 162.46273 36.65602 161.537123 36.882498 160.719832 37.355148 C 159.902541 37.817952 159.183719 38.428458 158.583059 39.186668 C 157.982399 39.935031 157.470361 40.801557 157.056792 41.766551 C 156.643223 42.741392 156.308429 43.735927 156.052411 44.769849 C 155.806239 45.803772 155.619148 46.818001 155.510832 47.812536 C 155.39267 48.80707 155.333588 49.703137 155.333588 50.510581 C 155.333588 52.420876 155.569913 54.321324 156.032717 56.211925 C 156.505367 58.102526 157.234036 59.796189 158.228571 61.292915 C 159.223106 62.789641 160.493354 64.000807 162.059008 64.936261 C 163.614815 65.861868 165.495569 66.334518 167.681576 66.334518 C 168.74504 66.334518 169.650953 66.127733 170.399316 65.704317 C 171.157525 65.290748 171.83696 64.837792 172.43762 64.325754 C 173.048126 63.823563 173.609399 63.370607 174.121436 62.947191 C 174.633474 62.533622 175.194746 62.326837 175.805253 62.326837 C 176.711166 62.326837 177.636773 62.573009 178.59192 63.065353 C 179.556914 63.557698 180.42344 64.187898 181.201343 64.975648 C 181.979247 65.753552 182.619294 66.620077 183.111638 67.575225 C 183.594135 68.530372 183.840307 69.465826 183.840307 70.371739 C 183.840307 71.533671 183.466126 72.567593 182.707916 73.483353 C 181.959553 74.40896 180.984712 75.226251 179.783393 75.945073 C 178.59192 76.654049 177.242897 77.264555 175.746172 77.776593 C 174.249446 78.278784 172.75272 78.7022 171.265841 79.036994 C 169.788809 79.381635 168.370858 79.61796 167.041529 79.77551 C 165.7122 79.923213 164.60935 80.001988 163.752671 80.001988 Z M 207.551596 80.001988 C 205.060335 80.001988 202.785706 79.6475 200.717861 78.938525 C 198.659863 78.239396 196.808649 77.254708 195.174067 75.994308 C 193.529638 74.743754 192.10184 73.256875 190.87098 71.563211 C 189.630273 69.859701 188.606198 68.008488 187.788907 66.009571 C 186.971615 64.010654 186.361109 61.903422 185.957387 59.707567 C 185.553665 57.501866 185.356727 55.276471 185.356727 53.041229 C 185.356727 50.825681 185.553665 48.61998 185.957387 46.414278 C 186.361109 44.208577 186.961769 42.101345 187.769213 40.092581 C 188.576657 38.073971 189.590886 36.203063 190.811899 34.460165 C 192.032912 32.727115 193.46071 31.220542 195.095292 29.950294 C 196.729874 28.680047 198.571241 27.685512 200.629239 26.966689 C 202.67739 26.247867 204.952019 25.893379 207.44328 25.893379 C 209.964082 25.893379 212.268252 26.247867 214.375484 26.966689 C 216.47287 27.685512 218.363471 28.680047 220.03744 29.950294 C 221.71141 31.220542 223.178595 32.727115 224.429149 34.460165 C 225.68955 36.203063 226.743166 38.083818 227.589998 40.112275 C 228.426983 42.130885 229.057183 44.257812 229.470752 46.493054 C 229.894168 48.718449 230.100952 50.963537 230.100952 53.22832 C 230.100952 55.493102 229.894168 57.728344 229.470752 59.934045 C 229.057183 62.1299 228.426983 64.227285 227.589998 66.216355 C 226.743166 68.205425 225.699397 70.046792 224.448843 71.730608 C 223.208136 73.414425 221.750798 74.871763 220.076828 76.092776 C 218.402858 77.31379 216.512257 78.268937 214.424718 78.958219 C 212.33718 79.657347 210.042857 80.001988 207.551596 80.001988 Z M 208.388581 61.647403 C 209.087709 61.647403 209.698216 61.401231 210.2201 60.908887 C 210.732138 60.426389 211.185095 59.786342 211.559276 59.008439 C 211.933458 58.230535 212.248558 57.354163 212.484883 56.379322 C 212.721208 55.414327 212.908299 54.45918 213.046155 53.513879 C 213.184012 52.568579 213.28248 51.68236 213.331715 50.845375 C 213.380949 50.018237 213.41049 49.348649 213.41049 48.846458 C 213.41049 48.265492 213.380949 47.556517 213.331715 46.699838 C 213.28248 45.843159 213.184012 44.937246 213.026461 43.982099 C 212.878758 43.017105 212.671974 42.081651 212.406108 41.146197 C 212.140242 40.210744 211.795601 39.373759 211.372185 38.615549 C 210.938923 37.857339 210.426885 37.246833 209.836072 36.784029 C 209.245259 36.321226 208.536284 36.084901 207.709146 36.084901 C 206.980477 36.084901 206.330583 36.311379 205.779157 36.744642 C 205.227732 37.187751 204.764929 37.75887 204.3809 38.448152 C 204.006719 39.137434 203.701466 39.925184 203.455294 40.801557 C 203.218968 41.687776 203.031878 42.564148 202.894021 43.430674 C 202.756165 44.297199 202.657696 45.134184 202.608462 45.921934 C 202.559227 46.719532 202.529687 47.379273 202.529687 47.901157 C 202.529687 48.482123 202.569074 49.230486 202.628156 50.136399 C 202.687237 51.042312 202.805399 51.99746 202.972796 53.021535 C 203.130346 54.045611 203.346978 55.069686 203.632537 56.103609 C 203.90825 57.127685 204.262738 58.053291 204.686154 58.870582 C 205.109569 59.687873 205.631454 60.357461 206.232114 60.879346 C 206.84262 61.391384 207.551596 61.647403 208.388581 61.647403 Z M 269.892197 80.228466 C 268.83858 80.228466 267.676648 80.179232 266.416248 80.070916 C 265.165694 79.972447 263.885599 79.795204 262.605505 79.549032 C 261.325411 79.293013 260.084704 78.938525 258.883384 78.465875 C 257.691912 78.003071 256.628449 77.412258 255.692995 76.693436 C 254.767388 75.974614 254.019025 75.108088 253.447906 74.074166 C 252.886634 73.040243 252.601074 71.829077 252.601074 70.450514 C 252.601074 68.353128 252.798012 66.245896 253.18204 64.11897 C 253.575916 61.992044 254.009178 59.85527 254.491675 57.698804 C 254.964326 55.552184 255.397588 53.376023 255.791464 51.190016 C 256.185339 49.004008 256.37243 46.768766 256.37243 44.503984 C 256.37243 42.170273 256.126258 40.023653 255.624067 38.064124 C 255.121876 36.114441 254.294738 34.125372 253.162347 32.087067 C 252.99495 31.811355 252.847246 31.515948 252.729084 31.200848 C 252.620768 30.885748 252.561687 30.550954 252.561687 30.196466 C 252.561687 29.290553 252.935868 28.561884 253.674384 28.010459 C 254.422747 27.449187 255.308967 27.025771 256.342889 26.720517 C 257.366965 26.425111 258.420581 26.218326 259.493891 26.119858 C 260.557354 26.021389 261.423879 25.962308 262.073773 25.962308 C 262.556271 25.962308 263.137237 25.991848 263.816671 26.041083 C 264.496106 26.090317 265.205081 26.178939 265.943598 26.306948 C 266.69196 26.434958 267.430476 26.602355 268.159146 26.818986 C 268.887815 27.035618 269.537709 27.31133 270.118675 27.665818 C 270.699641 28.020306 271.162444 28.433875 271.516932 28.916372 C 271.87142 29.389022 272.048663 29.969988 272.048663 30.649423 C 272.048663 31.299317 271.969888 31.978752 271.822185 32.687727 C 271.664635 33.396702 271.526779 34.076137 271.408616 34.726031 C 270.896578 37.374842 270.443622 40.023653 270.049747 42.672464 C 269.646025 45.331122 269.43924 47.989779 269.43924 50.658284 C 269.43924 51.495269 269.449087 52.450416 269.458934 53.533573 C 269.468781 54.61673 269.547556 55.719581 269.685412 56.832278 C 269.823268 57.954822 270.030053 59.057673 270.305766 60.14083 C 270.581478 61.223987 270.9852 62.188981 271.516932 63.025966 C 272.048663 63.872798 272.708404 64.552232 273.515849 65.06427 C 274.323293 65.586155 275.327675 65.842174 276.538841 65.842174 C 277.346285 65.842174 278.262045 65.645236 279.276274 65.251361 C 280.300349 64.867333 281.314578 64.43407 282.338654 63.971266 C 283.352882 63.508463 284.33757 63.0752 285.282871 62.691172 C 286.228171 62.297297 287.035616 62.100359 287.71505 62.100359 C 288.542188 62.100359 289.251164 62.395766 289.83213 62.986578 C 290.413096 63.577391 290.885746 64.30606 291.250081 65.162739 C 291.614415 66.019418 291.880281 66.89579 292.037831 67.801703 C 292.205228 68.707616 292.284003 69.495366 292.284003 70.145261 C 292.284003 71.129949 292.1363 72.124484 291.831046 73.128865 C 291.525793 74.133247 290.964521 74.940691 290.137383 75.541351 C 289.379173 76.102623 288.483107 76.604814 287.449185 77.057771 C 286.415262 77.510727 285.302565 77.904602 284.111092 78.239396 C 282.909773 78.584037 281.678913 78.879444 280.408665 79.135463 C 279.138417 79.381635 277.878017 79.588419 276.63731 79.755816 C 275.386756 79.913366 274.185437 80.041376 273.023505 80.110304 C 271.87142 80.189079 270.82765 80.228466 269.892197 80.228466 Z M 315.660497 80.001988 C 313.169237 80.001988 310.88476 79.6475 308.826762 78.938525 C 306.758917 78.239396 304.907704 77.254708 303.273122 75.994308 C 301.63854 74.743754 300.200895 73.256875 298.970035 71.563211 C 297.729328 69.859701 296.705252 68.008488 295.887961 66.009571 C 295.07067 64.010654 294.460164 61.903422 294.056441 59.707567 C 293.652719 57.501866 293.455782 55.276471 293.455782 53.041229 C 293.455782 50.825681 293.652719 48.61998 294.056441 46.414278 C 294.460164 44.208577 295.060823 42.101345 295.868268 40.092581 C 296.675712 38.073971 297.68994 36.203063 298.910954 34.460165 C 300.131967 32.727115 301.559764 31.220542 303.194347 29.950294 C 304.828929 28.680047 306.680142 27.685512 308.728294 26.966689 C 310.776445 26.247867 313.051074 25.893379 315.542335 25.893379 C 318.063136 25.893379 320.367306 26.247867 322.474539 26.966689 C 324.571924 27.685512 326.462525 28.680047 328.136495 29.950294 C 329.810465 31.220542 331.27765 32.727115 332.538051 34.460165 C 333.788605 36.203063 334.842221 38.083818 335.689052 40.112275 C 336.526037 42.130885 337.156238 44.257812 337.579654 46.493054 C 337.993223 48.718449 338.200007 50.963537 338.200007 53.22832 C 338.200007 55.493102 337.993223 57.728344 337.579654 59.934045 C 337.156238 62.1299 336.526037 64.227285 335.689052 66.216355 C 334.842221 68.205425 333.798451 70.046792 332.557744 71.730608 C 331.307191 73.414425 329.849852 74.871763 328.175883 76.092776 C 326.501913 77.31379 324.621159 78.268937 322.523773 78.958219 C 320.436234 79.657347 318.151758 80.001988 315.660497 80.001988 Z M 316.487635 61.647403 C 317.196611 61.647403 317.807117 61.401231 318.319155 60.908887 C 318.831193 60.426389 319.284149 59.786342 319.658331 59.008439 C 320.032512 58.230535 320.347613 57.354163 320.583938 56.379322 C 320.820263 55.414327 321.007354 54.45918 321.155057 53.513879 C 321.292913 52.568579 321.381535 51.68236 321.430769 50.845375 C 321.480004 50.018237 321.509544 49.348649 321.509544 48.846458 C 321.509544 48.265492 321.480004 47.556517 321.430769 46.699838 C 321.381535 45.843159 321.283066 44.937246 321.135363 43.982099 C 320.977813 43.017105 320.771028 42.081651 320.505163 41.146197 C 320.239297 40.210744 319.894656 39.373759 319.47124 38.615549 C 319.037977 37.857339 318.535787 37.246833 317.944974 36.784029 C 317.354161 36.321226 316.635339 36.084901 315.808201 36.084901 C 315.079531 36.084901 314.439484 36.311379 313.878212 36.744642 C 313.326787 37.187751 312.863983 37.75887 312.479955 38.448152 C 312.105774 39.137434 311.80052 39.925184 311.564195 40.801557 C 311.318023 41.687776 311.130932 42.564148 310.993076 43.430674 C 310.85522 44.297199 310.756751 45.134184 310.707516 45.921934 C 310.658282 46.719532 310.638588 47.379273 310.638588 47.901157 C 310.638588 48.482123 310.668129 49.230486 310.72721 50.136399 C 310.796138 51.042312 310.904454 51.99746 311.071851 53.021535 C 311.229401 54.045611 311.455879 55.069686 311.731592 56.103609 C 312.007305 57.127685 312.361792 58.053291 312.785208 58.870582 C 313.218471 59.687873 313.730509 60.357461 314.331169 60.879346 C 314.941675 61.391384 315.660497 61.647403 316.487635 61.647403 Z M 367.425548 79.962601 C 363.467102 79.962601 359.804063 79.342247 356.43643 78.111387 C 353.05895 76.880527 350.134426 75.108088 347.653012 72.803918 C 345.171598 70.499748 343.24161 67.713081 341.843353 64.443917 C 340.445096 61.174752 339.745967 57.492019 339.745967 53.415411 C 339.745967 49.368343 340.445096 45.656069 341.843353 42.298282 C 343.24161 38.940496 345.171598 36.035666 347.633319 33.59364 C 350.104886 31.151614 353.039256 29.261013 356.43643 27.91199 C 359.833604 26.562967 363.536031 25.893379 367.533864 25.893379 C 368.292074 25.893379 369.168446 25.932767 370.162981 26.021389 C 371.157516 26.110011 372.181592 26.267561 373.254902 26.474345 C 374.328212 26.690977 375.381828 26.976536 376.405904 27.340871 C 377.439826 27.715052 378.365433 28.168009 379.182724 28.709587 C 380.000015 29.241319 380.659756 29.891213 381.161947 30.629729 C 381.673985 31.368245 381.920157 32.244617 381.920157 33.258846 C 381.920157 34.056443 381.733066 34.962356 381.358884 35.956891 C 380.974856 36.951426 380.472665 37.877033 379.842465 38.733712 C 379.212264 39.59039 378.493442 40.299366 377.676151 40.880332 C 376.85886 41.461298 375.992335 41.746857 375.086422 41.746857 C 374.731934 41.746857 374.328212 41.638541 373.875255 41.412063 C 373.422299 41.185585 372.929955 40.929566 372.388376 40.63416 C 371.846798 40.3486 371.246138 40.092581 370.596244 39.866103 C 369.936503 39.639625 369.217681 39.521462 368.439777 39.521462 C 366.706726 39.521462 365.18046 39.944878 363.851131 40.79171 C 362.531649 41.628695 361.438645 42.702004 360.57212 44.001793 C 359.705594 45.291734 359.045853 46.739226 358.602743 48.33442 C 358.169481 49.939462 357.943002 51.495269 357.943002 53.001842 C 357.943002 53.85852 358.021778 54.813668 358.169481 55.867284 C 358.327031 56.930747 358.553509 58.004057 358.868609 59.077367 C 359.183709 60.160524 359.587432 61.21414 360.079776 62.238216 C 360.57212 63.252444 361.153086 64.168204 361.83252 64.975648 C 362.511955 65.773246 363.289859 66.42314 364.156384 66.89579 C 365.02291 67.378287 365.997751 67.614612 367.080908 67.614612 C 367.789883 67.614612 368.439777 67.427522 369.03059 67.05334 C 369.621403 66.669312 370.123594 66.186815 370.537163 65.596002 C 370.950732 65.005189 371.275679 64.365142 371.502157 63.666013 C 371.728635 62.976732 371.836951 62.316991 371.836951 61.68679 C 371.836951 60.879346 371.64986 60.130983 371.275679 59.422008 C 370.842416 58.644104 370.320531 58.112373 369.710025 57.83666 C 369.089671 57.560947 368.439777 57.373857 367.760342 57.285235 C 367.080908 57.196613 366.41132 57.137531 365.741732 57.098144 C 365.072144 57.058756 364.471484 56.901206 363.929906 56.625494 C 363.388327 56.349781 362.945218 55.867284 362.610424 55.187849 C 362.265783 54.508414 362.098386 53.494186 362.098386 52.135316 C 362.098386 51.150628 362.187008 50.264409 362.364252 49.476658 C 362.541496 48.679061 362.836902 48.009473 363.250471 47.448201 C 363.66404 46.896776 364.225312 46.47336 364.934288 46.1878 C 365.633416 45.902241 366.529482 45.754537 367.612639 45.754537 C 368.469318 45.754537 369.483547 45.754537 370.665172 45.754537 C 371.856645 45.754537 373.057964 45.793925 374.298671 45.862853 C 375.529531 45.941628 376.70131 46.079485 377.823854 46.286269 C 378.946399 46.483207 379.872005 46.78846 380.600675 47.192182 C 381.408119 47.615598 382.06786 48.255645 382.579898 49.112324 C 383.101782 49.969002 383.505504 50.943844 383.810758 52.036847 C 384.116011 53.129851 384.322795 54.30163 384.450805 55.552184 C 384.578814 56.792891 384.657589 58.033598 384.696977 59.254611 C 384.736364 60.475624 384.746211 61.637556 384.716671 62.740406 C 384.68713 63.853104 384.677283 64.808251 384.677283 65.615696 C 384.677283 68.057722 384.194786 70.174801 383.219945 71.97678 C 382.254951 73.77876 380.974856 75.265638 379.369815 76.447264 C 377.77462 77.62889 375.933253 78.515109 373.855561 79.096075 C 371.787717 79.677041 369.641097 79.962601 367.425548 79.962601 Z M 409.146781 80.001988 C 406.655521 80.001988 404.371044 79.6475 402.313046 78.938525 C 400.245201 78.239396 398.393988 77.254708 396.759406 75.994308 C 395.124823 74.743754 393.687179 73.256875 392.456319 71.563211 C 391.225459 69.859701 390.191536 68.008488 389.374245 66.009571 C 388.556954 64.010654 387.946448 61.903422 387.542725 59.707567 C 387.14885 57.501866 386.942066 55.276471 386.942066 53.041229 C 386.942066 50.825681 387.14885 48.61998 387.542725 46.414278 C 387.946448 44.208577 388.556954 42.101345 389.354551 40.092581 C 390.161996 38.073971 391.176224 36.203063 392.397238 34.460165 C 393.618251 32.727115 395.046048 31.220542 396.680631 29.950294 C 398.32506 28.680047 400.166426 27.685512 402.214577 26.966689 C 404.272575 26.247867 406.537358 25.893379 409.028619 25.893379 C 411.54942 25.893379 413.85359 26.247867 415.960823 26.966689 C 418.058208 27.685512 419.948809 28.680047 421.622779 29.950294 C 423.296749 31.220542 424.763934 32.727115 426.024335 34.460165 C 427.284735 36.203063 428.328505 38.083818 429.175336 40.112275 C 430.022168 42.130885 430.652368 44.257812 431.065937 46.493054 C 431.479506 48.718449 431.686291 50.963537 431.686291 53.22832 C 431.686291 55.493102 431.479506 57.728344 431.065937 59.934045 C 430.652368 62.1299 430.022168 64.227285 429.175336 66.216355 C 428.328505 68.205425 427.284735 70.046792 426.044028 71.730608 C 424.793475 73.414425 423.336136 74.871763 421.662167 76.092776 C 419.988197 77.31379 418.107443 78.268937 416.019904 78.958219 C 413.932365 79.657347 411.638042 80.001988 409.146781 80.001988 Z M 409.973919 61.647403 C 410.682895 61.647403 411.293401 61.401231 411.805439 60.908887 C 412.327324 60.426389 412.770433 59.786342 413.144615 59.008439 C 413.528643 58.230535 413.833897 57.354163 414.070222 56.379322 C 414.316394 55.414327 414.503484 54.45918 414.641341 53.513879 C 414.779197 52.568579 414.867819 51.68236 414.9269 50.845375 C 414.976135 50.018237 414.995828 49.348649 414.995828 48.846458 C 414.995828 48.265492 414.976135 47.556517 414.9269 46.699838 C 414.867819 45.843159 414.76935 44.937246 414.621647 43.982099 C 414.464097 43.017105 414.257312 42.081651 414.001293 41.146197 C 413.735428 40.210744 413.390787 39.373759 412.957524 38.615549 C 412.534108 37.857339 412.02207 37.246833 411.431258 36.784029 C 410.840445 36.321226 410.131469 36.084901 409.294485 36.084901 C 408.565815 36.084901 407.925768 36.311379 407.374343 36.744642 C 406.813071 37.187751 406.350267 37.75887 405.976086 38.448152 C 405.592057 39.137434 405.286804 39.925184 405.050479 40.801557 C 404.804307 41.687776 404.617216 42.564148 404.47936 43.430674 C 404.341504 44.297199 404.252882 45.134184 404.1938 45.921934 C 404.144566 46.719532 404.124872 47.379273 404.124872 47.901157 C 404.124872 48.482123 404.154413 49.230486 404.213494 50.136399 C 404.282422 51.042312 404.390738 51.99746 404.558135 53.021535 C 404.725532 54.045611 404.942163 55.069686 405.217876 56.103609 C 405.493589 57.127685 405.848076 58.053291 406.271492 58.870582 C 406.704755 59.687873 407.216793 60.357461 407.827299 60.879346 C 408.427959 61.391384 409.146781 61.647403 409.973919 61.647403 Z M 409.973919 61.647403 " stroke="#000000" stroke-width="10.923328" stroke-opacity="1" stroke-miterlimit="4"/><g fill="#f4d2ab" fill-opacity="1"><g transform="translate(634.00819, 415.303899)"><g><path d="M 5.171875 -0.046875 C 4.617188 -0.046875 4.078125 -0.113281 3.546875 -0.25 C 3.015625 -0.382812 2.546875 -0.59375 2.140625 -0.875 C 1.734375 -1.164062 1.40625 -1.535156 1.15625 -1.984375 C 0.90625 -2.441406 0.78125 -2.976562 0.78125 -3.59375 C 0.78125 -4.414062 0.859375 -5.234375 1.015625 -6.046875 C 1.179688 -6.867188 1.359375 -7.695312 1.546875 -8.53125 C 1.734375 -9.363281 1.90625 -10.207031 2.0625 -11.0625 C 2.226562 -11.914062 2.3125 -12.785156 2.3125 -13.671875 C 2.3125 -14.523438 2.226562 -15.328125 2.0625 -16.078125 C 1.894531 -16.835938 1.632812 -17.609375 1.28125 -18.390625 C 1.226562 -18.523438 1.175781 -18.664062 1.125 -18.8125 C 1.082031 -18.957031 1.0625 -19.113281 1.0625 -19.28125 C 1.0625 -19.707031 1.203125 -20.0625 1.484375 -20.34375 C 1.773438 -20.625 2.117188 -20.847656 2.515625 -21.015625 C 2.921875 -21.179688 3.347656 -21.296875 3.796875 -21.359375 C 4.242188 -21.429688 4.628906 -21.46875 4.953125 -21.46875 C 5.335938 -21.46875 5.753906 -21.429688 6.203125 -21.359375 C 6.648438 -21.285156 7.070312 -21.160156 7.46875 -20.984375 C 7.863281 -20.804688 8.191406 -20.5625 8.453125 -20.25 C 8.710938 -19.9375 8.84375 -19.539062 8.84375 -19.0625 C 8.84375 -18.894531 8.820312 -18.703125 8.78125 -18.484375 C 8.75 -18.265625 8.703125 -18.039062 8.640625 -17.8125 C 8.578125 -17.582031 8.519531 -17.351562 8.46875 -17.125 C 8.414062 -16.90625 8.375 -16.707031 8.34375 -16.53125 C 8.257812 -16.0625 8.203125 -15.59375 8.171875 -15.125 C 8.148438 -14.664062 8.140625 -14.203125 8.140625 -13.734375 C 8.140625 -12.085938 8.28125 -10.460938 8.5625 -8.859375 C 8.84375 -7.253906 9.238281 -5.675781 9.75 -4.125 C 9.800781 -3.96875 9.84375 -3.8125 9.875 -3.65625 C 9.90625 -3.507812 9.921875 -3.359375 9.921875 -3.203125 C 9.921875 -2.628906 9.757812 -2.144531 9.4375 -1.75 C 9.113281 -1.351562 8.710938 -1.023438 8.234375 -0.765625 C 7.753906 -0.515625 7.238281 -0.332031 6.6875 -0.21875 C 6.132812 -0.101562 5.628906 -0.046875 5.171875 -0.046875 Z M 5.171875 -0.046875 "/></g></g></g><g fill="#f4d2ab" fill-opacity="1"><g transform="translate(644.328393, 415.303899)"><g><path d="M 7.6875 0.09375 C 7.257812 0.09375 6.796875 0.0703125 6.296875 0.03125 C 5.804688 -0.0078125 5.304688 -0.078125 4.796875 -0.171875 C 4.285156 -0.273438 3.789062 -0.421875 3.3125 -0.609375 C 2.84375 -0.796875 2.421875 -1.03125 2.046875 -1.3125 C 1.679688 -1.59375 1.382812 -1.9375 1.15625 -2.34375 C 0.9375 -2.757812 0.828125 -3.238281 0.828125 -3.78125 C 0.828125 -4.613281 0.898438 -5.453125 1.046875 -6.296875 C 1.203125 -7.140625 1.375 -7.988281 1.5625 -8.84375 C 1.757812 -9.695312 1.9375 -10.554688 2.09375 -11.421875 C 2.25 -12.296875 2.328125 -13.179688 2.328125 -14.078125 C 2.328125 -15.003906 2.222656 -15.851562 2.015625 -16.625 C 1.816406 -17.40625 1.492188 -18.195312 1.046875 -19 C 0.972656 -19.113281 0.914062 -19.234375 0.875 -19.359375 C 0.832031 -19.484375 0.8125 -19.613281 0.8125 -19.75 C 0.8125 -20.113281 0.957031 -20.40625 1.25 -20.625 C 1.539062 -20.84375 1.890625 -21.007812 2.296875 -21.125 C 2.710938 -21.25 3.128906 -21.332031 3.546875 -21.375 C 3.972656 -21.414062 4.316406 -21.4375 4.578125 -21.4375 C 4.773438 -21.4375 5.003906 -21.425781 5.265625 -21.40625 C 5.535156 -21.382812 5.816406 -21.347656 6.109375 -21.296875 C 6.410156 -21.242188 6.703125 -21.175781 6.984375 -21.09375 C 7.273438 -21.007812 7.535156 -20.894531 7.765625 -20.75 C 8.003906 -20.613281 8.191406 -20.453125 8.328125 -20.265625 C 8.460938 -20.078125 8.53125 -19.847656 8.53125 -19.578125 C 8.53125 -19.316406 8.5 -19.046875 8.4375 -18.765625 C 8.382812 -18.484375 8.332031 -18.210938 8.28125 -17.953125 C 8.082031 -16.910156 7.898438 -15.859375 7.734375 -14.796875 C 7.578125 -13.742188 7.5 -12.691406 7.5 -11.640625 C 7.5 -11.304688 7.5 -10.925781 7.5 -10.5 C 7.507812 -10.070312 7.539062 -9.632812 7.59375 -9.1875 C 7.65625 -8.738281 7.738281 -8.300781 7.84375 -7.875 C 7.957031 -7.445312 8.117188 -7.066406 8.328125 -6.734375 C 8.535156 -6.398438 8.796875 -6.128906 9.109375 -5.921875 C 9.429688 -5.710938 9.832031 -5.609375 10.3125 -5.609375 C 10.632812 -5.609375 11 -5.6875 11.40625 -5.84375 C 11.8125 -6 12.210938 -6.171875 12.609375 -6.359375 C 13.015625 -6.546875 13.40625 -6.710938 13.78125 -6.859375 C 14.15625 -7.015625 14.476562 -7.09375 14.75 -7.09375 C 15.082031 -7.09375 15.363281 -6.972656 15.59375 -6.734375 C 15.820312 -6.503906 16.007812 -6.21875 16.15625 -5.875 C 16.300781 -5.539062 16.40625 -5.191406 16.46875 -4.828125 C 16.53125 -4.472656 16.5625 -4.164062 16.5625 -3.90625 C 16.5625 -3.519531 16.5 -3.125 16.375 -2.71875 C 16.257812 -2.320312 16.035156 -2.003906 15.703125 -1.765625 C 15.410156 -1.546875 15.054688 -1.347656 14.640625 -1.171875 C 14.234375 -0.992188 13.789062 -0.835938 13.3125 -0.703125 C 12.84375 -0.566406 12.351562 -0.445312 11.84375 -0.34375 C 11.34375 -0.238281 10.84375 -0.15625 10.34375 -0.09375 C 9.851562 -0.03125 9.378906 0.015625 8.921875 0.046875 C 8.460938 0.078125 8.050781 0.09375 7.6875 0.09375 Z M 7.6875 0.09375 "/></g></g></g><g fill="#f4d2ab" fill-opacity="1"><g transform="translate(661.08936, 415.303899)"><g><path d="M 7.6875 0.09375 C 7.257812 0.09375 6.796875 0.0703125 6.296875 0.03125 C 5.804688 -0.0078125 5.304688 -0.078125 4.796875 -0.171875 C 4.285156 -0.273438 3.789062 -0.421875 3.3125 -0.609375 C 2.84375 -0.796875 2.421875 -1.03125 2.046875 -1.3125 C 1.679688 -1.59375 1.382812 -1.9375 1.15625 -2.34375 C 0.9375 -2.757812 0.828125 -3.238281 0.828125 -3.78125 C 0.828125 -4.613281 0.898438 -5.453125 1.046875 -6.296875 C 1.203125 -7.140625 1.375 -7.988281 1.5625 -8.84375 C 1.757812 -9.695312 1.9375 -10.554688 2.09375 -11.421875 C 2.25 -12.296875 2.328125 -13.179688 2.328125 -14.078125 C 2.328125 -15.003906 2.222656 -15.851562 2.015625 -16.625 C 1.816406 -17.40625 1.492188 -18.195312 1.046875 -19 C 0.972656 -19.113281 0.914062 -19.234375 0.875 -19.359375 C 0.832031 -19.484375 0.8125 -19.613281 0.8125 -19.75 C 0.8125 -20.113281 0.957031 -20.40625 1.25 -20.625 C 1.539062 -20.84375 1.890625 -21.007812 2.296875 -21.125 C 2.710938 -21.25 3.128906 -21.332031 3.546875 -21.375 C 3.972656 -21.414062 4.316406 -21.4375 4.578125 -21.4375 C 4.773438 -21.4375 5.003906 -21.425781 5.265625 -21.40625 C 5.535156 -21.382812 5.816406 -21.347656 6.109375 -21.296875 C 6.410156 -21.242188 6.703125 -21.175781 6.984375 -21.09375 C 7.273438 -21.007812 7.535156 -20.894531 7.765625 -20.75 C 8.003906 -20.613281 8.191406 -20.453125 8.328125 -20.265625 C 8.460938 -20.078125 8.53125 -19.847656 8.53125 -19.578125 C 8.53125 -19.316406 8.5 -19.046875 8.4375 -18.765625 C 8.382812 -18.484375 8.332031 -18.210938 8.28125 -17.953125 C 8.082031 -16.910156 7.898438 -15.859375 7.734375 -14.796875 C 7.578125 -13.742188 7.5 -12.691406 7.5 -11.640625 C 7.5 -11.304688 7.5 -10.925781 7.5 -10.5 C 7.507812 -10.070312 7.539062 -9.632812 7.59375 -9.1875 C 7.65625 -8.738281 7.738281 -8.300781 7.84375 -7.875 C 7.957031 -7.445312 8.117188 -7.066406 8.328125 -6.734375 C 8.535156 -6.398438 8.796875 -6.128906 9.109375 -5.921875 C 9.429688 -5.710938 9.832031 -5.609375 10.3125 -5.609375 C 10.632812 -5.609375 11 -5.6875 11.40625 -5.84375 C 11.8125 -6 12.210938 -6.171875 12.609375 -6.359375 C 13.015625 -6.546875 13.40625 -6.710938 13.78125 -6.859375 C 14.15625 -7.015625 14.476562 -7.09375 14.75 -7.09375 C 15.082031 -7.09375 15.363281 -6.972656 15.59375 -6.734375 C 15.820312 -6.503906 16.007812 -6.21875 16.15625 -5.875 C 16.300781 -5.539062 16.40625 -5.191406 16.46875 -4.828125 C 16.53125 -4.472656 16.5625 -4.164062 16.5625 -3.90625 C 16.5625 -3.519531 16.5 -3.125 16.375 -2.71875 C 16.257812 -2.320312 16.035156 -2.003906 15.703125 -1.765625 C 15.410156 -1.546875 15.054688 -1.347656 14.640625 -1.171875 C 14.234375 -0.992188 13.789062 -0.835938 13.3125 -0.703125 C 12.84375 -0.566406 12.351562 -0.445312 11.84375 -0.34375 C 11.34375 -0.238281 10.84375 -0.15625 10.34375 -0.09375 C 9.851562 -0.03125 9.378906 0.015625 8.921875 0.046875 C 8.460938 0.078125 8.050781 0.09375 7.6875 0.09375 Z M 7.6875 0.09375 "/></g></g></g><g fill="#f4d2ab" fill-opacity="1"><g transform="translate(677.850326, 415.303899)"><g><path d="M 5.171875 -0.046875 C 4.617188 -0.046875 4.078125 -0.113281 3.546875 -0.25 C 3.015625 -0.382812 2.546875 -0.59375 2.140625 -0.875 C 1.734375 -1.164062 1.40625 -1.535156 1.15625 -1.984375 C 0.90625 -2.441406 0.78125 -2.976562 0.78125 -3.59375 C 0.78125 -4.414062 0.859375 -5.234375 1.015625 -6.046875 C 1.179688 -6.867188 1.359375 -7.695312 1.546875 -8.53125 C 1.734375 -9.363281 1.90625 -10.207031 2.0625 -11.0625 C 2.226562 -11.914062 2.3125 -12.785156 2.3125 -13.671875 C 2.3125 -14.523438 2.226562 -15.328125 2.0625 -16.078125 C 1.894531 -16.835938 1.632812 -17.609375 1.28125 -18.390625 C 1.226562 -18.523438 1.175781 -18.664062 1.125 -18.8125 C 1.082031 -18.957031 1.0625 -19.113281 1.0625 -19.28125 C 1.0625 -19.707031 1.203125 -20.0625 1.484375 -20.34375 C 1.773438 -20.625 2.117188 -20.847656 2.515625 -21.015625 C 2.921875 -21.179688 3.347656 -21.296875 3.796875 -21.359375 C 4.242188 -21.429688 4.628906 -21.46875 4.953125 -21.46875 C 5.335938 -21.46875 5.753906 -21.429688 6.203125 -21.359375 C 6.648438 -21.285156 7.070312 -21.160156 7.46875 -20.984375 C 7.863281 -20.804688 8.191406 -20.5625 8.453125 -20.25 C 8.710938 -19.9375 8.84375 -19.539062 8.84375 -19.0625 C 8.84375 -18.894531 8.820312 -18.703125 8.78125 -18.484375 C 8.75 -18.265625 8.703125 -18.039062 8.640625 -17.8125 C 8.578125 -17.582031 8.519531 -17.351562 8.46875 -17.125 C 8.414062 -16.90625 8.375 -16.707031 8.34375 -16.53125 C 8.257812 -16.0625 8.203125 -15.59375 8.171875 -15.125 C 8.148438 -14.664062 8.140625 -14.203125 8.140625 -13.734375 C 8.140625 -12.085938 8.28125 -10.460938 8.5625 -8.859375 C 8.84375 -7.253906 9.238281 -5.675781 9.75 -4.125 C 9.800781 -3.96875 9.84375 -3.8125 9.875 -3.65625 C 9.90625 -3.507812 9.921875 -3.359375 9.921875 -3.203125 C 9.921875 -2.628906 9.757812 -2.144531 9.4375 -1.75 C 9.113281 -1.351562 8.710938 -1.023438 8.234375 -0.765625 C 7.753906 -0.515625 7.238281 -0.332031 6.6875 -0.21875 C 6.132812 -0.101562 5.628906 -0.046875 5.171875 -0.046875 Z M 5.171875 -0.046875 "/></g></g></g><g fill="#f4d2ab" fill-opacity="1"><g transform="translate(688.170529, 415.303899)"><g><path d="M 10.796875 0 C 9.242188 0 7.8125 -0.265625 6.5 -0.796875 C 5.1875 -1.328125 4.054688 -2.0625 3.109375 -3 C 2.171875 -3.945312 1.441406 -5.070312 0.921875 -6.375 C 0.398438 -7.6875 0.140625 -9.125 0.140625 -10.6875 C 0.140625 -12.289062 0.410156 -13.753906 0.953125 -15.078125 C 1.492188 -16.398438 2.242188 -17.53125 3.203125 -18.46875 C 4.171875 -19.414062 5.320312 -20.148438 6.65625 -20.671875 C 7.988281 -21.203125 9.445312 -21.46875 11.03125 -21.46875 C 11.9375 -21.46875 12.804688 -21.328125 13.640625 -21.046875 C 14.484375 -20.765625 15.226562 -20.359375 15.875 -19.828125 C 16.53125 -19.296875 17.050781 -18.648438 17.4375 -17.890625 C 17.832031 -17.128906 18.03125 -16.265625 18.03125 -15.296875 C 18.03125 -14.679688 17.929688 -14.101562 17.734375 -13.5625 C 17.546875 -13.019531 17.273438 -12.523438 16.921875 -12.078125 C 16.566406 -11.628906 16.144531 -11.238281 15.65625 -10.90625 C 15.175781 -10.582031 14.648438 -10.332031 14.078125 -10.15625 C 13.953125 -10.113281 13.8125 -10.09375 13.65625 -10.09375 C 13.332031 -10.09375 13.019531 -10.175781 12.71875 -10.34375 C 12.414062 -10.507812 12.148438 -10.722656 11.921875 -10.984375 C 11.703125 -11.242188 11.523438 -11.535156 11.390625 -11.859375 C 11.253906 -12.191406 11.1875 -12.507812 11.1875 -12.8125 C 11.1875 -13.175781 11.253906 -13.472656 11.390625 -13.703125 C 11.523438 -13.929688 11.671875 -14.140625 11.828125 -14.328125 C 11.984375 -14.523438 12.125 -14.722656 12.25 -14.921875 C 12.382812 -15.117188 12.453125 -15.359375 12.453125 -15.640625 C 12.453125 -15.867188 12.398438 -16.078125 12.296875 -16.265625 C 12.191406 -16.460938 12.054688 -16.628906 11.890625 -16.765625 C 11.734375 -16.898438 11.546875 -17.003906 11.328125 -17.078125 C 11.117188 -17.148438 10.90625 -17.1875 10.6875 -17.1875 C 10.28125 -17.1875 9.914062 -17.09375 9.59375 -16.90625 C 9.269531 -16.726562 8.988281 -16.488281 8.75 -16.1875 C 8.507812 -15.882812 8.304688 -15.539062 8.140625 -15.15625 C 7.972656 -14.78125 7.835938 -14.382812 7.734375 -13.96875 C 7.640625 -13.5625 7.566406 -13.160156 7.515625 -12.765625 C 7.472656 -12.367188 7.453125 -12.015625 7.453125 -11.703125 C 7.453125 -10.941406 7.546875 -10.1875 7.734375 -9.4375 C 7.921875 -8.6875 8.210938 -8.015625 8.609375 -7.421875 C 9.003906 -6.828125 9.507812 -6.34375 10.125 -5.96875 C 10.738281 -5.601562 11.484375 -5.421875 12.359375 -5.421875 C 12.773438 -5.421875 13.132812 -5.503906 13.4375 -5.671875 C 13.738281 -5.835938 14.007812 -6.019531 14.25 -6.21875 C 14.488281 -6.414062 14.707031 -6.597656 14.90625 -6.765625 C 15.113281 -6.929688 15.335938 -7.015625 15.578125 -7.015625 C 15.929688 -7.015625 16.296875 -6.914062 16.671875 -6.71875 C 17.054688 -6.519531 17.40625 -6.265625 17.71875 -5.953125 C 18.03125 -5.648438 18.28125 -5.304688 18.46875 -4.921875 C 18.664062 -4.546875 18.765625 -4.175781 18.765625 -3.8125 C 18.765625 -3.351562 18.613281 -2.941406 18.3125 -2.578125 C 18.007812 -2.210938 17.617188 -1.890625 17.140625 -1.609375 C 16.671875 -1.328125 16.140625 -1.082031 15.546875 -0.875 C 14.953125 -0.675781 14.359375 -0.507812 13.765625 -0.375 C 13.179688 -0.25 12.625 -0.15625 12.09375 -0.09375 C 11.570312 -0.03125 11.140625 0 10.796875 0 Z M 10.796875 0 "/></g></g></g><g fill="#f4d2ab" fill-opacity="1"><g transform="translate(707.268144, 415.303899)"><g><path d="M 9.078125 0 C 8.085938 0 7.179688 -0.140625 6.359375 -0.421875 C 5.546875 -0.703125 4.8125 -1.09375 4.15625 -1.59375 C 3.507812 -2.09375 2.941406 -2.675781 2.453125 -3.34375 C 1.960938 -4.019531 1.554688 -4.753906 1.234375 -5.546875 C 0.910156 -6.335938 0.664062 -7.171875 0.5 -8.046875 C 0.34375 -8.921875 0.265625 -9.800781 0.265625 -10.6875 C 0.265625 -11.570312 0.34375 -12.445312 0.5 -13.3125 C 0.664062 -14.1875 0.90625 -15.023438 1.21875 -15.828125 C 1.539062 -16.628906 1.941406 -17.375 2.421875 -18.0625 C 2.910156 -18.75 3.476562 -19.34375 4.125 -19.84375 C 4.78125 -20.351562 5.515625 -20.75 6.328125 -21.03125 C 7.140625 -21.320312 8.039062 -21.46875 9.03125 -21.46875 C 10.03125 -21.46875 10.945312 -21.320312 11.78125 -21.03125 C 12.613281 -20.75 13.359375 -20.351562 14.015625 -19.84375 C 14.679688 -19.34375 15.265625 -18.75 15.765625 -18.0625 C 16.265625 -17.375 16.679688 -16.625 17.015625 -15.8125 C 17.347656 -15.007812 17.597656 -14.164062 17.765625 -13.28125 C 17.929688 -12.40625 18.015625 -11.519531 18.015625 -10.625 C 18.015625 -9.71875 17.929688 -8.828125 17.765625 -7.953125 C 17.597656 -7.085938 17.347656 -6.257812 17.015625 -5.46875 C 16.679688 -4.675781 16.265625 -3.945312 15.765625 -3.28125 C 15.273438 -2.613281 14.695312 -2.035156 14.03125 -1.546875 C 13.375 -1.066406 12.628906 -0.6875 11.796875 -0.40625 C 10.972656 -0.132812 10.066406 0 9.078125 0 Z M 9.40625 -7.28125 C 9.6875 -7.28125 9.925781 -7.375 10.125 -7.5625 C 10.332031 -7.757812 10.507812 -8.015625 10.65625 -8.328125 C 10.8125 -8.640625 10.9375 -8.984375 11.03125 -9.359375 C 11.125 -9.742188 11.195312 -10.125 11.25 -10.5 C 11.3125 -10.875 11.347656 -11.226562 11.359375 -11.5625 C 11.378906 -11.894531 11.390625 -12.160156 11.390625 -12.359375 C 11.390625 -12.585938 11.378906 -12.867188 11.359375 -13.203125 C 11.347656 -13.546875 11.3125 -13.90625 11.25 -14.28125 C 11.1875 -14.664062 11.101562 -15.039062 11 -15.40625 C 10.894531 -15.78125 10.753906 -16.113281 10.578125 -16.40625 C 10.410156 -16.707031 10.207031 -16.953125 9.96875 -17.140625 C 9.738281 -17.328125 9.460938 -17.421875 9.140625 -17.421875 C 8.847656 -17.421875 8.59375 -17.332031 8.375 -17.15625 C 8.15625 -16.976562 7.96875 -16.75 7.8125 -16.46875 C 7.664062 -16.195312 7.546875 -15.882812 7.453125 -15.53125 C 7.359375 -15.1875 7.28125 -14.84375 7.21875 -14.5 C 7.164062 -14.15625 7.128906 -13.828125 7.109375 -13.515625 C 7.085938 -13.203125 7.078125 -12.941406 7.078125 -12.734375 C 7.078125 -12.503906 7.085938 -12.207031 7.109375 -11.84375 C 7.140625 -11.488281 7.1875 -11.109375 7.25 -10.703125 C 7.320312 -10.296875 7.410156 -9.882812 7.515625 -9.46875 C 7.628906 -9.0625 7.769531 -8.695312 7.9375 -8.375 C 8.101562 -8.050781 8.304688 -7.785156 8.546875 -7.578125 C 8.785156 -7.378906 9.070312 -7.28125 9.40625 -7.28125 Z M 9.40625 -7.28125 "/></g></g></g><g fill="#f4d2ab" fill-opacity="1"><g transform="translate(725.781595, 415.303899)"><g/></g></g><g fill="#f4d2ab" fill-opacity="1"><g transform="translate(733.390683, 415.303899)"><g><path d="M 7.6875 0.09375 C 7.257812 0.09375 6.796875 0.0703125 6.296875 0.03125 C 5.804688 -0.0078125 5.304688 -0.078125 4.796875 -0.171875 C 4.285156 -0.273438 3.789062 -0.421875 3.3125 -0.609375 C 2.84375 -0.796875 2.421875 -1.03125 2.046875 -1.3125 C 1.679688 -1.59375 1.382812 -1.9375 1.15625 -2.34375 C 0.9375 -2.757812 0.828125 -3.238281 0.828125 -3.78125 C 0.828125 -4.613281 0.898438 -5.453125 1.046875 -6.296875 C 1.203125 -7.140625 1.375 -7.988281 1.5625 -8.84375 C 1.757812 -9.695312 1.9375 -10.554688 2.09375 -11.421875 C 2.25 -12.296875 2.328125 -13.179688 2.328125 -14.078125 C 2.328125 -15.003906 2.222656 -15.851562 2.015625 -16.625 C 1.816406 -17.40625 1.492188 -18.195312 1.046875 -19 C 0.972656 -19.113281 0.914062 -19.234375 0.875 -19.359375 C 0.832031 -19.484375 0.8125 -19.613281 0.8125 -19.75 C 0.8125 -20.113281 0.957031 -20.40625 1.25 -20.625 C 1.539062 -20.84375 1.890625 -21.007812 2.296875 -21.125 C 2.710938 -21.25 3.128906 -21.332031 3.546875 -21.375 C 3.972656 -21.414062 4.316406 -21.4375 4.578125 -21.4375 C 4.773438 -21.4375 5.003906 -21.425781 5.265625 -21.40625 C 5.535156 -21.382812 5.816406 -21.347656 6.109375 -21.296875 C 6.410156 -21.242188 6.703125 -21.175781 6.984375 -21.09375 C 7.273438 -21.007812 7.535156 -20.894531 7.765625 -20.75 C 8.003906 -20.613281 8.191406 -20.453125 8.328125 -20.265625 C 8.460938 -20.078125 8.53125 -19.847656 8.53125 -19.578125 C 8.53125 -19.316406 8.5 -19.046875 8.4375 -18.765625 C 8.382812 -18.484375 8.332031 -18.210938 8.28125 -17.953125 C 8.082031 -16.910156 7.898438 -15.859375 7.734375 -14.796875 C 7.578125 -13.742188 7.5 -12.691406 7.5 -11.640625 C 7.5 -11.304688 7.5 -10.925781 7.5 -10.5 C 7.507812 -10.070312 7.539062 -9.632812 7.59375 -9.1875 C 7.65625 -8.738281 7.738281 -8.300781 7.84375 -7.875 C 7.957031 -7.445312 8.117188 -7.066406 8.328125 -6.734375 C 8.535156 -6.398438 8.796875 -6.128906 9.109375 -5.921875 C 9.429688 -5.710938 9.832031 -5.609375 10.3125 -5.609375 C 10.632812 -5.609375 11 -5.6875 11.40625 -5.84375 C 11.8125 -6 12.210938 -6.171875 12.609375 -6.359375 C 13.015625 -6.546875 13.40625 -6.710938 13.78125 -6.859375 C 14.15625 -7.015625 14.476562 -7.09375 14.75 -7.09375 C 15.082031 -7.09375 15.363281 -6.972656 15.59375 -6.734375 C 15.820312 -6.503906 16.007812 -6.21875 16.15625 -5.875 C 16.300781 -5.539062 16.40625 -5.191406 16.46875 -4.828125 C 16.53125 -4.472656 16.5625 -4.164062 16.5625 -3.90625 C 16.5625 -3.519531 16.5 -3.125 16.375 -2.71875 C 16.257812 -2.320312 16.035156 -2.003906 15.703125 -1.765625 C 15.410156 -1.546875 15.054688 -1.347656 14.640625 -1.171875 C 14.234375 -0.992188 13.789062 -0.835938 13.3125 -0.703125 C 12.84375 -0.566406 12.351562 -0.445312 11.84375 -0.34375 C 11.34375 -0.238281 10.84375 -0.15625 10.34375 -0.09375 C 9.851562 -0.03125 9.378906 0.015625 8.921875 0.046875 C 8.460938 0.078125 8.050781 0.09375 7.6875 0.09375 Z M 7.6875 0.09375 "/></g></g></g><g fill="#f4d2ab" fill-opacity="1"><g transform="translate(750.151649, 415.303899)"><g><path d="M 9.078125 0 C 8.085938 0 7.179688 -0.140625 6.359375 -0.421875 C 5.546875 -0.703125 4.8125 -1.09375 4.15625 -1.59375 C 3.507812 -2.09375 2.941406 -2.675781 2.453125 -3.34375 C 1.960938 -4.019531 1.554688 -4.753906 1.234375 -5.546875 C 0.910156 -6.335938 0.664062 -7.171875 0.5 -8.046875 C 0.34375 -8.921875 0.265625 -9.800781 0.265625 -10.6875 C 0.265625 -11.570312 0.34375 -12.445312 0.5 -13.3125 C 0.664062 -14.1875 0.90625 -15.023438 1.21875 -15.828125 C 1.539062 -16.628906 1.941406 -17.375 2.421875 -18.0625 C 2.910156 -18.75 3.476562 -19.34375 4.125 -19.84375 C 4.78125 -20.351562 5.515625 -20.75 6.328125 -21.03125 C 7.140625 -21.320312 8.039062 -21.46875 9.03125 -21.46875 C 10.03125 -21.46875 10.945312 -21.320312 11.78125 -21.03125 C 12.613281 -20.75 13.359375 -20.351562 14.015625 -19.84375 C 14.679688 -19.34375 15.265625 -18.75 15.765625 -18.0625 C 16.265625 -17.375 16.679688 -16.625 17.015625 -15.8125 C 17.347656 -15.007812 17.597656 -14.164062 17.765625 -13.28125 C 17.929688 -12.40625 18.015625 -11.519531 18.015625 -10.625 C 18.015625 -9.71875 17.929688 -8.828125 17.765625 -7.953125 C 17.597656 -7.085938 17.347656 -6.257812 17.015625 -5.46875 C 16.679688 -4.675781 16.265625 -3.945312 15.765625 -3.28125 C 15.273438 -2.613281 14.695312 -2.035156 14.03125 -1.546875 C 13.375 -1.066406 12.628906 -0.6875 11.796875 -0.40625 C 10.972656 -0.132812 10.066406 0 9.078125 0 Z M 9.40625 -7.28125 C 9.6875 -7.28125 9.925781 -7.375 10.125 -7.5625 C 10.332031 -7.757812 10.507812 -8.015625 10.65625 -8.328125 C 10.8125 -8.640625 10.9375 -8.984375 11.03125 -9.359375 C 11.125 -9.742188 11.195312 -10.125 11.25 -10.5 C 11.3125 -10.875 11.347656 -11.226562 11.359375 -11.5625 C 11.378906 -11.894531 11.390625 -12.160156 11.390625 -12.359375 C 11.390625 -12.585938 11.378906 -12.867188 11.359375 -13.203125 C 11.347656 -13.546875 11.3125 -13.90625 11.25 -14.28125 C 11.1875 -14.664062 11.101562 -15.039062 11 -15.40625 C 10.894531 -15.78125 10.753906 -16.113281 10.578125 -16.40625 C 10.410156 -16.707031 10.207031 -16.953125 9.96875 -17.140625 C 9.738281 -17.328125 9.460938 -17.421875 9.140625 -17.421875 C 8.847656 -17.421875 8.59375 -17.332031 8.375 -17.15625 C 8.15625 -16.976562 7.96875 -16.75 7.8125 -16.46875 C 7.664062 -16.195312 7.546875 -15.882812 7.453125 -15.53125 C 7.359375 -15.1875 7.28125 -14.84375 7.21875 -14.5 C 7.164062 -14.15625 7.128906 -13.828125 7.109375 -13.515625 C 7.085938 -13.203125 7.078125 -12.941406 7.078125 -12.734375 C 7.078125 -12.503906 7.085938 -12.207031 7.109375 -11.84375 C 7.140625 -11.488281 7.1875 -11.109375 7.25 -10.703125 C 7.320312 -10.296875 7.410156 -9.882812 7.515625 -9.46875 C 7.628906 -9.0625 7.769531 -8.695312 7.9375 -8.375 C 8.101562 -8.050781 8.304688 -7.785156 8.546875 -7.578125 C 8.785156 -7.378906 9.070312 -7.28125 9.40625 -7.28125 Z M 9.40625 -7.28125 "/></g></g></g><g fill="#f4d2ab" fill-opacity="1"><g transform="translate(768.665099, 415.303899)"><g><path d="M 11.09375 -0.015625 C 9.53125 -0.015625 8.078125 -0.257812 6.734375 -0.75 C 5.398438 -1.238281 4.238281 -1.9375 3.25 -2.84375 C 2.269531 -3.757812 1.503906 -4.867188 0.953125 -6.171875 C 0.398438 -7.472656 0.125 -8.929688 0.125 -10.546875 C 0.125 -12.148438 0.398438 -13.617188 0.953125 -14.953125 C 1.503906 -16.285156 2.269531 -17.4375 3.25 -18.40625 C 4.226562 -19.375 5.390625 -20.125 6.734375 -20.65625 C 8.085938 -21.195312 9.554688 -21.46875 11.140625 -21.46875 C 11.441406 -21.46875 11.789062 -21.445312 12.1875 -21.40625 C 12.582031 -21.375 12.988281 -21.316406 13.40625 -21.234375 C 13.832031 -21.148438 14.25 -21.035156 14.65625 -20.890625 C 15.070312 -20.742188 15.441406 -20.5625 15.765625 -20.34375 C 16.085938 -20.132812 16.347656 -19.878906 16.546875 -19.578125 C 16.742188 -19.285156 16.84375 -18.941406 16.84375 -18.546875 C 16.84375 -18.222656 16.769531 -17.863281 16.625 -17.46875 C 16.476562 -17.070312 16.28125 -16.703125 16.03125 -16.359375 C 15.78125 -16.023438 15.488281 -15.742188 15.15625 -15.515625 C 14.832031 -15.285156 14.492188 -15.171875 14.140625 -15.171875 C 13.992188 -15.171875 13.832031 -15.210938 13.65625 -15.296875 C 13.476562 -15.390625 13.28125 -15.492188 13.0625 -15.609375 C 12.851562 -15.722656 12.617188 -15.828125 12.359375 -15.921875 C 12.097656 -16.015625 11.8125 -16.0625 11.5 -16.0625 C 10.8125 -16.0625 10.203125 -15.890625 9.671875 -15.546875 C 9.148438 -15.210938 8.71875 -14.789062 8.375 -14.28125 C 8.03125 -13.769531 7.769531 -13.195312 7.59375 -12.5625 C 7.425781 -11.925781 7.34375 -11.304688 7.34375 -10.703125 C 7.34375 -10.367188 7.367188 -9.988281 7.421875 -9.5625 C 7.484375 -9.144531 7.578125 -8.722656 7.703125 -8.296875 C 7.828125 -7.867188 7.988281 -7.453125 8.1875 -7.046875 C 8.382812 -6.640625 8.613281 -6.273438 8.875 -5.953125 C 9.144531 -5.640625 9.453125 -5.382812 9.796875 -5.1875 C 10.140625 -5 10.53125 -4.90625 10.96875 -4.90625 C 11.238281 -4.90625 11.492188 -4.976562 11.734375 -5.125 C 11.972656 -5.28125 12.171875 -5.472656 12.328125 -5.703125 C 12.492188 -5.941406 12.617188 -6.195312 12.703125 -6.46875 C 12.796875 -6.75 12.84375 -7.015625 12.84375 -7.265625 C 12.84375 -7.585938 12.769531 -7.882812 12.625 -8.15625 C 12.457031 -8.46875 12.25 -8.675781 12 -8.78125 C 11.757812 -8.894531 11.503906 -8.96875 11.234375 -9 C 10.960938 -9.039062 10.691406 -9.066406 10.421875 -9.078125 C 10.160156 -9.097656 9.921875 -9.160156 9.703125 -9.265625 C 9.492188 -9.378906 9.320312 -9.570312 9.1875 -9.84375 C 9.050781 -10.113281 8.984375 -10.515625 8.984375 -11.046875 C 8.984375 -11.441406 9.019531 -11.796875 9.09375 -12.109375 C 9.164062 -12.421875 9.28125 -12.6875 9.4375 -12.90625 C 9.601562 -13.125 9.828125 -13.289062 10.109375 -13.40625 C 10.390625 -13.519531 10.742188 -13.578125 11.171875 -13.578125 C 11.515625 -13.578125 11.921875 -13.578125 12.390625 -13.578125 C 12.859375 -13.578125 13.335938 -13.5625 13.828125 -13.53125 C 14.316406 -13.507812 14.78125 -13.457031 15.21875 -13.375 C 15.664062 -13.289062 16.035156 -13.171875 16.328125 -13.015625 C 16.640625 -12.847656 16.898438 -12.59375 17.109375 -12.25 C 17.316406 -11.90625 17.476562 -11.515625 17.59375 -11.078125 C 17.71875 -10.648438 17.800781 -10.1875 17.84375 -9.6875 C 17.894531 -9.195312 17.925781 -8.707031 17.9375 -8.21875 C 17.957031 -7.738281 17.960938 -7.28125 17.953125 -6.84375 C 17.941406 -6.40625 17.9375 -6.023438 17.9375 -5.703125 C 17.9375 -4.734375 17.742188 -3.890625 17.359375 -3.171875 C 16.972656 -2.460938 16.460938 -1.875 15.828125 -1.40625 C 15.203125 -0.9375 14.476562 -0.585938 13.65625 -0.359375 C 12.832031 -0.128906 11.976562 -0.015625 11.09375 -0.015625 Z M 11.09375 -0.015625 "/></g></g></g><g fill="#f4d2ab" fill-opacity="1"><g transform="translate(787.238464, 415.303899)"><g><path d="M 9.078125 0 C 8.085938 0 7.179688 -0.140625 6.359375 -0.421875 C 5.546875 -0.703125 4.8125 -1.09375 4.15625 -1.59375 C 3.507812 -2.09375 2.941406 -2.675781 2.453125 -3.34375 C 1.960938 -4.019531 1.554688 -4.753906 1.234375 -5.546875 C 0.910156 -6.335938 0.664062 -7.171875 0.5 -8.046875 C 0.34375 -8.921875 0.265625 -9.800781 0.265625 -10.6875 C 0.265625 -11.570312 0.34375 -12.445312 0.5 -13.3125 C 0.664062 -14.1875 0.90625 -15.023438 1.21875 -15.828125 C 1.539062 -16.628906 1.941406 -17.375 2.421875 -18.0625 C 2.910156 -18.75 3.476562 -19.34375 4.125 -19.84375 C 4.78125 -20.351562 5.515625 -20.75 6.328125 -21.03125 C 7.140625 -21.320312 8.039062 -21.46875 9.03125 -21.46875 C 10.03125 -21.46875 10.945312 -21.320312 11.78125 -21.03125 C 12.613281 -20.75 13.359375 -20.351562 14.015625 -19.84375 C 14.679688 -19.34375 15.265625 -18.75 15.765625 -18.0625 C 16.265625 -17.375 16.679688 -16.625 17.015625 -15.8125 C 17.347656 -15.007812 17.597656 -14.164062 17.765625 -13.28125 C 17.929688 -12.40625 18.015625 -11.519531 18.015625 -10.625 C 18.015625 -9.71875 17.929688 -8.828125 17.765625 -7.953125 C 17.597656 -7.085938 17.347656 -6.257812 17.015625 -5.46875 C 16.679688 -4.675781 16.265625 -3.945312 15.765625 -3.28125 C 15.273438 -2.613281 14.695312 -2.035156 14.03125 -1.546875 C 13.375 -1.066406 12.628906 -0.6875 11.796875 -0.40625 C 10.972656 -0.132812 10.066406 0 9.078125 0 Z M 9.40625 -7.28125 C 9.6875 -7.28125 9.925781 -7.375 10.125 -7.5625 C 10.332031 -7.757812 10.507812 -8.015625 10.65625 -8.328125 C 10.8125 -8.640625 10.9375 -8.984375 11.03125 -9.359375 C 11.125 -9.742188 11.195312 -10.125 11.25 -10.5 C 11.3125 -10.875 11.347656 -11.226562 11.359375 -11.5625 C 11.378906 -11.894531 11.390625 -12.160156 11.390625 -12.359375 C 11.390625 -12.585938 11.378906 -12.867188 11.359375 -13.203125 C 11.347656 -13.546875 11.3125 -13.90625 11.25 -14.28125 C 11.1875 -14.664062 11.101562 -15.039062 11 -15.40625 C 10.894531 -15.78125 10.753906 -16.113281 10.578125 -16.40625 C 10.410156 -16.707031 10.207031 -16.953125 9.96875 -17.140625 C 9.738281 -17.328125 9.460938 -17.421875 9.140625 -17.421875 C 8.847656 -17.421875 8.59375 -17.332031 8.375 -17.15625 C 8.15625 -16.976562 7.96875 -16.75 7.8125 -16.46875 C 7.664062 -16.195312 7.546875 -15.882812 7.453125 -15.53125 C 7.359375 -15.1875 7.28125 -14.84375 7.21875 -14.5 C 7.164062 -14.15625 7.128906 -13.828125 7.109375 -13.515625 C 7.085938 -13.203125 7.078125 -12.941406 7.078125 -12.734375 C 7.078125 -12.503906 7.085938 -12.207031 7.109375 -11.84375 C 7.140625 -11.488281 7.1875 -11.109375 7.25 -10.703125 C 7.320312 -10.296875 7.410156 -9.882812 7.515625 -9.46875 C 7.628906 -9.0625 7.769531 -8.695312 7.9375 -8.375 C 8.101562 -8.050781 8.304688 -7.785156 8.546875 -7.578125 C 8.785156 -7.378906 9.070312 -7.28125 9.40625 -7.28125 Z M 9.40625 -7.28125 "/></g></g></g></svg>